<svg xmlns="http://www.w3.org/2000/svg" height="40" width="40"><path d="M18.208 27.583h-6.541q-3.125 0-5.355-2.229Q4.083 23.125 4.083 20t2.229-5.354q2.23-2.229 5.355-2.229h6.541v2.125h-6.541q-2.292 0-3.875 1.583Q6.208 17.708 6.208 20q0 2.25 1.584 3.854 1.583 1.604 3.875 1.604h6.541Zm-4.333-6.541v-2.084h12.292v2.084Zm7.917 6.541v-2.125h6.541q2.292 0 3.875-1.583 1.584-1.583 1.584-3.875 0-2.25-1.584-3.854-1.583-1.604-3.875-1.604h-6.541v-2.125h6.541q3.125 0 5.355 2.229 2.229 2.229 2.229 5.354t-2.229 5.354q-2.23 2.229-5.355 2.229Z"/></svg>